<svg xmlns="http://www.w3.org/2000/svg" version="1.0" width="1069.266774pt" height="1101.889567pt" viewBox="0 0 1069.266774 1101.889567" preserveAspectRatio="xMidYMid meet">
<metadata fill="#0f6b6b">
Created by potrace 1.12, written by Peter Selinger 2001-2015
</metadata>
<g transform="translate(-92.719130,1145.935587) scale(0.100000,-0.100000)" fill="#0f6b6b" stroke="none">
<path d="M3505 11364 c-684 -224 -779 -255 -950 -308 -99 -30 -191 -56 -204 -58 -14 -2 -31 -15 -40 -30 -9 -15 -79 -109 -155 -210 -112 -147 -886 -1173 -933 -1237 -13 -18 -24 -106 -147 -1221 -47 -421 -99 -885 -117 -1032 l-32 -266 33 -54 c37 -58 320 -611 752 -1468 l280 -555 131 -155 c238 -281 708 -839 1001 -1190 205 -244 356 -412 516 -575 335 -341 1360 -1442 1372 -1475 4 -10 24 -30 45 -44 68 -43 525 -440 1053 -915 80 -71 154 -130 164 -131 11 0 31 11 45 24 23 21 141 117 527 431 54 44 229 185 389 312 159 128 310 252 335 274 194 179 1091 950 1440 1238 90 75 173 145 183 156 10 11 80 110 156 220 245 357 679 958 903 1252 43 57 78 105 78 109 0 4 61 122 137 263 264 497 607 1138 711 1331 153 285 344 660 396 778 l46 102 -40 368 c-79 741 -141 1311 -160 1487 -12 99 -35 304 -52 455 l-31 275 -37 45 c-20 25 -110 144 -200 265 -90 121 -292 390 -448 599 -156 208 -315 424 -353 480 -63 91 -74 102 -112 112 -136 37 -474 139 -1217 370 l-215 66 -664 -211 c-365 -116 -671 -211 -681 -211 -31 0 -507 -636 -1003 -1339 l-128 -182 -18 23 c-9 13 -93 133 -186 268 -201 293 -407 578 -683 949 -112 151 -206 280 -209 288 -3 7 -17 16 -32 19 -85 19 -606 179 -1120 345 -101 32 -195 59 -210 58 -14 0 -156 -43 -316 -95z m669 -63 c387 -123 718 -227 759 -237 67 -16 28 -24 -120 -24 -87 0 -322 -4 -523 -10 -201 -5 -628 -16 -950 -25 -322 -8 -641 -17 -709 -20 -68 -2 -121 -2 -117 2 4 4 89 33 189 64 233 72 940 301 1032 333 39 13 76 25 84 25 8 1 168 -48 355 -108z m4880 5 c279 -88 592 -184 880 -270 65 -20 125 -36 132 -36 7 0 16 -5 20 -11 4 -8 -37 -9 -147 -5 -85 3 -541 11 -1014 16 -473 6 -970 13 -1105 17 l-245 6 85 28 c47 15 216 69 375 119 160 51 385 123 500 160 116 38 212 69 214 69 2 1 139 -41 305 -93z m-4084 -323 c-8 -3 -73 -33 -145 -66 -435 -199 -1639 -727 -1659 -727 -4 0 6 17 22 38 115 147 263 365 260 384 -3 18 -41 34 -268 110 -146 50 -341 116 -434 147 -94 32 -166 60 -160 63 5 2 88 6 184 7 96 1 306 6 465 11 160 5 490 14 735 20 245 6 481 12 525 13 164 6 489 5 475 0z m135 -50 c-3 -27 -10 -111 -15 -188 -22 -290 -40 -511 -46 -546 l-5 -37 -842 -7 c-463 -4 -871 -5 -907 -3 l-65 3 170 74 c94 40 242 105 330 143 88 38 205 90 260 113 85 38 282 125 665 295 47 21 164 74 260 118 96 45 181 81 188 81 9 1 11 -11 7 -46z m3690 17 c900 -12 1295 -20 1295 -29 0 -3 -170 -176 -378 -383 l-377 -377 -245 108 c-245 107 -533 238 -1050 476 -151 69 -317 145 -367 168 -51 23 -93 45 -93 49 0 4 102 5 228 3 125 -3 569 -10 987 -15z m-3578 -52 c232 -296 984 -1351 971 -1362 -1 -2 -111 59 -243 135 -132 76 -374 214 -538 306 -165 91 -302 173 -305 182 -5 14 3 143 32 501 8 96 16 203 18 238 1 34 6 62 9 62 4 0 29 -28 56 -62z m2523 -73 c140 -64 314 -144 385 -177 179 -83 747 -340 935 -424 l155 -69 -135 -3 c-74 -2 -460 0 -857 3 l-722 7 -6 62 c-12 124 -51 721 -48 729 2 4 12 3 21 -2 9 -5 132 -61 272 -126z m-5294 38 c44 -52 242 -300 452 -565 73 -92 132 -171 132 -177 0 -5 -91 -94 -202 -197 -112 -104 -318 -297 -458 -429 -472 -443 -510 -478 -510 -461 0 66 443 1720 505 1884 7 19 34 1 81 -55z m4974 -308 c12 -165 22 -324 23 -354 l2 -54 -90 -52 c-468 -269 -978 -556 -981 -552 -10 9 562 802 870 1207 l141 185 6 -41 c4 -22 17 -175 29 -339z m2840 50 c107 -443 164 -668 199 -780 93 -300 225 -764 219 -770 -5 -5 -323 255 -624 510 -142 120 -349 295 -459 388 -110 93 -202 173 -204 179 -5 16 777 794 788 783 5 -6 41 -145 81 -310z m-7307 140 c230 -78 420 -145 424 -148 3 -4 -2 -19 -12 -34 -43 -66 -268 -373 -282 -385 -13 -11 -19 -8 -42 21 -14 19 -144 183 -288 364 -145 181 -263 331 -263 334 0 6 -8 8 463 -152z m7672 -370 c198 -264 412 -551 478 -639 65 -87 117 -159 115 -161 -7 -7 -719 396 -723 410 -9 28 -160 570 -195 699 -22 83 -43 159 -46 170 -4 14 -3 17 3 11 6 -5 171 -226 368 -490z m-8345 430 c-6 -16 -62 -206 -126 -423 -63 -218 -115 -397 -117 -398 -3 -3 -660 -390 -686 -404 -19 -10 -22 -9 -14 2 9 15 736 983 868 1156 43 56 80 101 82 99 2 -3 -1 -17 -7 -32z m2834 -724 c28 -16 146 -82 261 -146 299 -168 556 -314 732 -416 84 -49 159 -89 168 -89 14 0 222 117 1000 561 l200 114 935 -4 935 -4 65 -56 c164 -144 904 -763 1090 -914 l207 -167 61 -228 c119 -442 134 -505 128 -548 -3 -22 -46 -213 -95 -425 -85 -359 -163 -771 -242 -1262 l-31 -199 -115 -160 c-64 -88 -268 -376 -454 -640 l-339 -480 -44 -132 c-24 -72 -90 -261 -146 -421 -94 -268 -280 -814 -353 -1034 -27 -81 -35 -96 -66 -115 -54 -34 -578 -318 -1016 -551 -214 -114 -489 -262 -610 -328 -121 -67 -250 -137 -287 -157 -37 -20 -138 -94 -225 -166 -329 -272 -596 -485 -604 -482 -11 4 -485 420 -612 537 -92 85 -111 97 -299 191 -494 249 -1279 627 -1667 802 l-185 83 -37 120 c-20 66 -121 388 -224 715 -103 327 -212 676 -242 775 -44 143 -76 222 -156 385 -55 113 -121 250 -147 305 -26 55 -213 433 -415 840 l-368 740 -8 145 c-16 265 -58 1121 -70 1389 l-11 264 63 56 c35 31 307 284 605 563 297 279 553 517 568 529 28 22 31 22 694 29 367 3 810 7 986 8 l319 2 51 -29z m-3205 -630 c-62 -248 -116 -450 -120 -449 -20 7 -488 483 -481 489 14 15 706 418 710 415 2 -2 -47 -207 -109 -455z m9121 167 c129 -72 238 -133 243 -137 4 -4 -19 -97 -51 -207 -137 -463 -285 -954 -288 -951 -2 2 -42 149 -89 328 -47 178 -110 414 -140 524 -169 620 -195 717 -195 725 0 5 64 -28 143 -72 78 -45 248 -139 377 -210z m-9510 -427 l254 -250 -13 -38 c-13 -36 -153 -352 -461 -1043 -72 -162 -163 -369 -202 -460 -72 -169 -88 -198 -88 -165 0 10 48 444 106 964 58 520 113 1012 122 1094 9 81 19 147 22 147 3 0 120 -112 260 -249z m9802 -3 c89 -795 144 -1294 193 -1753 19 -181 37 -349 40 -372 2 -24 1 -43 -3 -42 -4 0 -139 266 -300 591 l-293 591 56 196 c31 108 86 293 122 411 94 309 145 482 150 508 11 47 19 17 35 -130z m-9522 -793 c9 -239 31 -664 56 -1126 l7 -115 -114 -13 c-63 -7 -242 -28 -399 -47 -266 -32 -340 -39 -340 -31 0 2 17 44 39 93 21 49 73 170 116 269 43 99 120 275 172 390 52 116 171 384 266 596 l172 387 7 -62 c3 -33 11 -187 18 -341z m9441 -870 c160 -322 289 -591 286 -598 -3 -7 -65 -51 -138 -97 -74 -46 -242 -152 -375 -236 -397 -250 -424 -266 -424 -245 0 21 97 600 141 841 16 91 66 320 110 510 44 190 83 360 86 378 3 17 9 32 14 32 5 0 140 -263 300 -585z m-9377 -447 c3 -13 8 -86 11 -163 10 -229 68 -1249 100 -1745 3 -49 2 -80 -3 -75 -5 6 -91 172 -192 370 -100 198 -220 432 -265 520 -45 88 -158 309 -250 490 -92 182 -190 372 -217 424 -35 66 -46 96 -38 101 7 4 46 10 89 14 42 4 184 20 316 36 257 32 387 47 422 49 16 1 24 -6 27 -21z m379 -725 c370 -743 632 -1282 626 -1287 -3 -3 -284 -31 -696 -68 -68 -6 -126 -9 -129 -5 -7 7 -31 390 -94 1502 -11 193 -21 380 -23 418 -3 37 -3 67 -1 67 2 0 145 -282 317 -627z m9220 360 c-71 -149 -256 -500 -467 -893 -73 -135 -233 -434 -356 -665 -276 -519 -299 -563 -300 -549 0 7 32 230 70 495 39 266 93 636 119 822 27 186 50 339 52 341 2 1 69 42 149 92 80 49 289 180 464 291 176 112 323 203 327 203 4 0 -22 -62 -58 -137z m-968 -660 c-9 -65 -63 -441 -121 -835 -57 -394 -104 -721 -104 -727 0 -5 -73 -76 -162 -158 -90 -81 -215 -197 -278 -258 -464 -443 -693 -660 -700 -663 -9 -3 87 283 352 1048 l181 525 91 130 c50 72 151 216 226 321 74 105 223 315 330 466 107 152 197 274 199 272 1 -1 -4 -56 -14 -121z m-7536 -1230 c33 -104 101 -318 151 -478 50 -159 102 -324 115 -365 81 -252 205 -665 203 -672 -2 -4 -21 14 -43 41 -180 219 -1056 1259 -1237 1468 -48 56 -88 106 -88 111 0 4 64 13 143 20 78 7 250 24 382 37 132 12 257 23 277 24 l37 1 60 -187z m7109 -635 c-73 -94 -496 -683 -728 -1012 -143 -203 -155 -217 -162 -194 -5 14 -26 92 -47 172 l-38 146 186 177 c102 98 283 270 401 384 265 253 444 418 449 414 2 -2 -26 -41 -61 -87z m-968 -1112 c22 -87 40 -164 38 -171 -2 -7 -75 -72 -163 -145 -88 -74 -200 -168 -250 -210 -204 -173 -786 -673 -870 -746 -106 -93 -101 -84 66 113 69 81 217 258 330 393 560 669 792 940 801 932 3 -4 25 -79 48 -166z m-182 106 c-388 -458 -845 -1002 -1161 -1382 -71 -85 -151 -181 -178 -213 l-48 -58 -225 338 c-124 186 -222 341 -218 344 14 14 382 214 949 518 318 170 648 347 733 395 85 47 159 85 163 86 5 0 -2 -12 -15 -28z m-4688 -327 c135 -65 476 -232 758 -371 l513 -253 -23 -34 c-161 -233 -433 -607 -439 -605 -4 2 -125 131 -270 288 -328 356 -461 499 -864 924 -176 186 -321 342 -323 347 -4 10 303 -131 648 -296z m1363 -866 c71 -177 325 -779 495 -1174 55 -126 98 -231 96 -233 -1 -2 -150 128 -331 289 -180 161 -415 367 -522 458 -107 91 -208 177 -223 191 l-29 25 192 270 c105 149 203 287 217 308 13 20 27 37 31 37 3 0 37 -77 74 -171z m50 122 c64 -60 380 -339 504 -444 50 -43 93 -84 96 -90 2 -7 5 -230 6 -497 2 -340 -1 -482 -8 -475 -20 20 -497 1139 -658 1543 -9 23 9 12 60 -37z m1236 -243 c-162 -381 -456 -1038 -560 -1253 l-19 -40 0 502 0 502 121 98 c67 54 221 180 343 279 122 100 222 180 224 179 2 -2 -47 -122 -109 -267z m405 -61 c113 -169 206 -311 206 -316 0 -5 -125 -110 -277 -233 -153 -123 -325 -262 -382 -308 -374 -304 -466 -378 -469 -376 -1 2 19 47 44 102 151 323 337 742 519 1167 103 241 130 296 141 285 6 -7 105 -151 218 -321z" fill="#0f6b6b"/>
<path d="M4250 8992 c0 -17 9 -20 78 -25 121 -9 163 -32 205 -112 19 -36 22 -64 28 -275 10 -320 10 -1973 0 -2190 -9 -193 -21 -242 -72 -285 -35 -29 -80 -42 -169 -51 -61 -7 -85 -18 -74 -36 3 -4 223 -8 490 -8 465 0 484 1 484 19 0 15 -11 19 -67 25 -96 9 -138 23 -178 57 -68 60 -69 64 -73 717 -3 555 -2 582 15 590 10 4 74 6 143 6 194 -2 288 -33 388 -128 126 -118 174 -198 433 -716 114 -228 243 -474 287 -547 179 -297 362 -497 558 -610 l65 -38 -4 -360 c-3 -391 -5 -404 -60 -463 -34 -35 -79 -52 -142 -52 -55 0 -85 -10 -85 -26 0 -12 78 -14 480 -14 401 0 480 2 480 14 0 16 -43 26 -109 26 -100 0 -172 43 -207 123 -18 39 -19 85 -22 694 l-3 652 34 6 c19 4 149 5 288 3 230 -4 260 -7 322 -27 121 -40 187 -132 187 -262 0 -57 7 -79 26 -79 12 0 14 64 14 395 0 337 -2 395 -14 395 -10 0 -17 -16 -21 -47 -18 -148 -45 -204 -118 -247 -87 -52 -150 -60 -423 -61 -235 0 -253 1 -273 19 l-22 20 3 520 c3 476 5 524 21 553 35 65 49 68 372 68 312 0 374 -6 497 -52 53 -20 86 -41 132 -84 90 -84 123 -160 141 -321 5 -41 11 -58 21 -58 12 0 14 45 14 290 l0 290 -910 0 c-880 0 -910 -1 -910 -19 0 -15 11 -19 75 -24 105 -8 157 -34 187 -95 l23 -47 3 -760 2 -760 -44 61 c-113 156 -222 355 -475 869 -210 428 -300 581 -417 712 -47 52 -154 126 -236 163 -43 19 -78 38 -78 41 0 3 31 9 68 12 92 9 243 48 346 90 238 97 417 295 472 522 21 86 24 268 5 345 -21 86 -83 209 -138 276 -124 148 -316 247 -575 295 -106 20 -156 22 -790 26 -667 5 -678 5 -678 -15z m1380 -71 c233 -69 383 -219 446 -446 25 -91 30 -322 10 -425 -48 -236 -158 -391 -339 -480 -151 -74 -205 -83 -502 -84 -297 -1 -315 3 -335 72 -8 26 -10 225 -8 652 3 573 4 618 21 652 20 40 55 67 102 79 16 4 143 7 280 5 223 -3 258 -5 325 -25z" fill="#0f6b6b"/>
<path d="M4415 4024 c-39 -20 -42 -23 -50 -64 l-7 -35 24 35 c29 43 74 58 119 40 31 -13 59 -59 59 -97 0 -40 -53 -127 -130 -212 l-81 -91 129 0 130 0 11 31 c16 48 13 55 -12 31 -20 -19 -35 -22 -112 -22 l-88 0 81 84 c92 95 122 147 122 207 0 33 -6 47 -34 75 -29 29 -41 34 -82 34 -27 0 -62 -7 -79 -16z" fill="#0f6b6b"/>
<path d="M4932 3988 c-75 -103 -182 -257 -182 -262 0 -3 42 -7 93 -8 l92 -3 3 -48 c3 -41 0 -48 -20 -56 -17 -8 -7 -10 42 -9 36 0 57 2 47 5 -15 4 -17 13 -15 56 3 48 5 52 28 52 20 0 26 6 28 28 3 25 1 26 -21 18 -14 -6 -28 -7 -31 -4 -3 4 -6 69 -6 145 0 82 -4 138 -10 138 -5 0 -27 -24 -48 -52z m6 -135 l-3 -98 -67 -3 c-44 -2 -68 1 -68 8 0 14 122 189 133 189 4 1 6 -43 5 -96z" fill="#0f6b6b"/>
<path d="M5605 4015 c-44 -21 -47 -24 -22 -24 l27 -1 -2 -187 -3 -187 -25 -7 c-15 -4 7 -7 55 -7 57 -1 74 2 58 8 -23 9 -23 11 -23 220 0 115 -3 210 -7 209 -5 0 -30 -11 -58 -24z" fill="#0f6b6b"/>
<path d="M5943 4020 c-99 -60 -113 -299 -22 -390 53 -52 123 -52 183 0 96 85 86 328 -16 390 -42 25 -104 26 -145 0z m119 -17 c35 -37 48 -91 48 -193 -1 -131 -34 -200 -95 -200 -19 0 -39 8 -49 19 -44 49 -61 218 -31 319 25 82 79 106 127 55z" fill="#0f6b6b"/>
<path d="M6748 4019 c-31 -16 -38 -25 -38 -48 l0 -29 34 34 c44 44 86 46 127 5 62 -63 30 -155 -106 -299 l-77 -82 135 0 135 0 10 40 10 40 -25 -20 c-21 -16 -41 -20 -109 -20 -46 0 -84 3 -84 7 0 3 40 48 89 98 103 107 122 147 102 215 -22 75 -120 103 -203 59z" fill="#0f6b6b"/>
<path d="M7210 4033 c-92 -33 -134 -222 -77 -346 31 -68 65 -92 128 -92 96 0 152 80 152 218 0 98 -20 153 -69 197 -27 24 -44 30 -77 29 -23 0 -49 -3 -57 -6z m103 -33 c59 -70 63 -292 6 -365 -45 -56 -128 -15 -146 73 -10 49 -10 178 0 224 19 90 92 126 140 68z" fill="#0f6b6b"/>
<path d="M7615 4031 c-27 -11 -51 -41 -58 -71 l-6 -25 22 26 c66 78 161 57 174 -38 8 -61 -29 -129 -127 -235 l-82 -88 135 0 135 0 6 31 c9 48 8 51 -14 29 -17 -17 -33 -20 -111 -20 l-92 0 90 93 c107 111 133 163 114 228 -15 51 -59 79 -121 78 -25 0 -54 -4 -65 -8z" fill="#0f6b6b"/>
<path d="M8102 4009 c-54 -31 -107 -93 -129 -152 -18 -49 -16 -153 4 -194 31 -67 134 -91 200 -48 71 47 84 154 24 207 -39 35 -106 39 -142 8 l-24 -19 32 11 c67 25 117 -22 118 -109 0 -57 -30 -97 -78 -101 -141 -12 -120 298 27 396 61 41 39 42 -32 1z" fill="#0f6b6b"/>
<path d="M5200 3790 c0 -6 38 -10 94 -10 53 0 98 4 101 10 4 6 -30 10 -94 10 -61 0 -101 -4 -101 -10z" fill="#0f6b6b"/>
<path d="M6340 3790 c0 -6 42 -10 105 -10 63 0 105 4 105 10 0 6 -42 10 -105 10 -63 0 -105 -4 -105 -10z" fill="#0f6b6b"/>
</g>
</svg>